<svg xmlns="http://www.w3.org/2000/svg" xmlns:xlink="http://www.w3.org/1999/xlink" id="Layer_1" x="0px" y="0px" viewBox="0 0 330.1 130.7" style="enable-background:new 0 0 330.1 130.7;" xml:space="preserve"><style type="text/css">	.st0{fill-rule:evenodd;clip-rule:evenodd;fill:#FFFFFF;}</style><g>	<path class="st0" d="M355.7,0.1c0.1,1.1,0.2,1.6,0.3,2.8c0,0.3,0.2,0.7,0.3,1.4c0.1,1.3,0.5,3,0.8,4.7c0.3,1.8,0.4,3.8,0.8,5.6  c0.5,2.7,1.1,6,1.6,9.2c1.2,8.6,3.2,19.8,4.9,29c0.1,0.5,0.1,1.2,0.3,1.7c1.4,7.2,2.2,15.4,3.5,22.6c0.2,0.9,0.4,1.8,0.6,2.6  c0.1,0.5,0.2,0.8,0.3,1.3c0.7,4.3,1.5,7.4,2.1,11.6c0.3,2.1,1.5,4.2,0.9,5c-0.7,0.8-2.9,0.1-3.6,0.1c-0.6,0-1.3,0.2-1.9,0.3  c-0.7,0-1.3-0.1-1.9,0c-0.8,0.1-1.6,0.5-2.5,0.6c-1,0.2-2.1,0.2-3.2,0.3c-2.1,0.3-4.8,0.6-7.4,1.1c-0.3,0.1-0.7,0.2-1,0.3  c-0.3,0.1-0.6,0.3-0.9,0.4c-1.7,0.4-2.9-0.1-5,0.7c-1.6-0.2-2.5,0.1-4.1,0.4c-0.8,0.2-1.7,0.2-2.5,0.4c-0.8,0.2-1.5,0.6-2.2,0.7  c-1.9,0.4-4,0.4-6,0.7c-1.2,0.2-2.4,0.6-3.7,0.8c-2.4,0.4-4.3,0.8-6.8,1.3c-1.9,0.4-3.8,0.4-5.2,1.2c-6.6,1.1-15.5,2.2-23.2,3.8  c-2.2,0.5-4.6,0.6-6.9,1c-1.8,0.4-4.2,0.6-5.6,1.1c-1.1,0.4-2.9,0.3-4.2,0.6c-1.5,0.3-3.2,1.1-4.9,0.6c-0.3-1-0.4-2.1-0.6-3.2  c-0.2-1,0-2.1-0.2-3.1c-0.1-0.7-0.3-1.3-0.4-2c-0.2-1.3-0.4-2.8-0.7-4.5c-0.1-0.7-0.1-1.4-0.2-2.1c-0.1-0.4-0.3-0.7-0.4-1  c-0.1-0.5,0.1-1,0.1-1.5c-0.1-0.5-0.3-1.1-0.4-1.6c-0.6-3.8-1.2-9-2-13.6c-0.1-0.5-0.3-1.1-0.4-1.7c0-0.4,0.1-0.8,0.1-1.2  c-0.1-1-0.6-2-0.7-3c-0.9-6-1.9-12.2-2.8-18.4c-0.1-0.8-0.4-1.7-0.5-2.5c-0.1-0.8-0.5-1.6-0.6-2.3c-0.1-0.5,0.1-1.1,0-1.6  c-0.1-0.7-0.6-1.4-0.7-2.2c-0.1-0.4,0-1-0.1-1.5c-0.8-5.8-2.1-11-2.9-15.8c-0.8-5.1-2.2-10.2-2.8-14.7c1.1-1.4,2.8-1,4.3-1.2  c0.5-0.1,1-0.3,1.4-0.3c0.4,0,0.8,0.1,1.2,0.1c0.4-0.1,0.8-0.3,1.3-0.3c0.4,0,1-0.1,1.4-0.2c1.2-0.1,2.5-0.1,3.6-0.4  c0.4-0.1,0.8-0.4,1.1-0.4c3-0.6,5.9-0.6,9-1.1c0.5-0.1,1.2-0.2,1.7-0.3c4-0.8,9-1.4,13.2-2c1.6-0.2,3.2-0.7,4.9-0.9  c1.6-0.1,3.2-0.2,4.8-0.4c1-0.1,2-0.5,3-0.7c4.1-0.9,8.5-0.8,12.5-2.1c1.6,0,3-0.5,4.5-0.7c0.5-0.1,1.1,0.1,1.5,0.1  c1-0.1,2.5-0.6,3.9-0.8c5.1-0.9,10.2-1.3,15.3-2.5c0.7-0.2,1.4-0.6,2.1-0.7c2-0.4,4.3-0.3,6.4-0.8C352,0.3,353.6-0.2,355.7,0.1  L355.7,0.1z M345.9,8.2c-2.8,0.6-6.3,1-8.6,1.4c-2.1,0.4-5.3,1.3-7.4,1.4c-0.5,0-1-0.2-1.5-0.2c-0.6,0.1-1.6,0.5-2.3,0.6  c-2.6,0.4-4.8,0.9-7.2,1.3c-0.7,0.1-1.3,0.1-2,0.2c-1.5,0.2-2.7,0.5-4.2,0.8c-0.8,0.1-1.6,0.2-2.4,0.4c-3,0.4-7.9,1.2-10.4,1.7  c-0.8,0.1-1.5,0.2-2.2,0.3c-0.5,0.1-0.9,0.4-1.4,0.5c-1,0.2-2-0.1-3,0c-1.1,0.1-2.5,0.3-3.7,0.5c-1.5,0.3-3.6,0.6-4.5,0.9  c-2.9,1.1-6.3,0.7-9.4,1.4c-1.4,0.3-2.6,0.7-3.9,0.8c-2.2,0.3-4.7,0.1-6.5,1c-1.2,0.2-3.7-0.2-4.5,0.5c-1.1,1,0.3,3.5,0.6,4.9  c0.4,1.9,0.6,4.2,1,6.5c0.7,3.9,1.2,6.4,1.7,9.7c0.1,1.1,0.6,2.1,0.3,2.9c0.7,0.5,0.2,1.3,0.3,2c0.2,1.1,0.8,2,0.9,3.1  c0,0.5-0.1,1.1,0,1.6c0.1,0.9,0.5,1.8,0.7,2.7c0.4,2.3,0.6,4.4,0.9,6.3c0.2,1,0.5,2.1,0.6,3.2c0.1,0.8-0.1,1.6,0.1,2.4  c0,0.2,0.2,0.2,0.3,0.5c0.3,0.7-0.1,1.4,0.6,1.9c0,0.5-0.2,1.5-0.1,2c0.2,1,0.7,2.1,0.9,3.1c0.2,1.2,0.2,2.4,0.4,3.6  c0.1,0.4,0.4,0.8,0.4,1.2c0.7,3.3,0.6,7,1.7,10.7c-0.3,1.1,0.2,2.1,0.5,3.6c-0.2,0.3,0,0.8-0.2,1.1c0.8,1.5,0.7,3.9,1,6.1  c0.3,2.1,0.6,4.1,1.3,5.9c3.8-0.3,7.4-1.4,11.2-2.2c3.9-0.8,7.2-0.6,11-1.6c6.8-1.7,14.1-2.3,21.1-3.4c1.9-0.3,3.7-0.9,5.6-1.2  c2.6-0.5,5.7-1.1,7.7-1.5c3.8-0.9,7.7-1.1,11.6-2c1.7-0.4,3.5-0.8,5.1-1c3.5-0.5,6.9-1.2,10.3-1.8c1.7-0.3,4-0.5,5.7-1  c-0.1-2.8-0.9-4.8-1-7.4c0-0.4-0.3-1.1-0.4-1.5c-0.2-2.1-0.7-3.9-1-6.2c-0.3-2-0.5-4.2-0.8-6.2c-0.3-2.3-0.7-4.6-1.1-6.9  c-0.8-4.8-1.7-10.5-2.4-14.6c0-0.2,0-0.4,0-0.6c-0.1-0.2-0.3-0.6-0.3-0.8c-0.2-1.1-0.2-2.2-0.4-3.3c-0.4-3.1-1.1-6-1.6-9.2  c-0.2-1.1-0.6-2.1-0.7-3.1c-0.2-0.9-0.2-1.9-0.4-2.8c-0.3-1.1-0.4-2.2-0.6-3.3c-0.1-0.5-0.4-0.8-0.5-1.3c-0.4-2-0.6-3.6-0.9-5.3  c-0.4-2.2-0.8-4.7-1.2-7.3c-0.2-1.1-0.3-2.3-0.8-3.4C348.4,7.5,346.9,8,345.9,8.2L345.9,8.2z"></path>	<path class="st0" d="M151.4,31.8C151.9,32.1,150.8,32.3,151.4,31.8z"></path>	<path class="st0" d="M309.5,21.4c0.9,1.3,0.2,3.4,1.1,4.8c0.8,0.3,1.9-0.1,2.7-0.1c0.8-0.1,1.6,0.2,2.5,0.2c0.4,0,0.8-0.2,1.2-0.2  c0.6,0,1.2,0.3,1.8,0.4c0.8,0.1,1.7-0.1,2.4,0c1.2,0.2,2.5,0.8,3.7,1.1c1.4,0.3,2.8,0.4,3.8,0.8c0.3,0.1,0.5,0.6,0.8,0.7  c0.4,0.2,0.9,0.1,1.2,0.2c0.5,0.1,0.7,0.5,1.1,0.4c0.9,0.7,2.2,0.9,3,1.9c3,1.1,5.3,3.3,7.6,5.5c1.9,1.3,3.2,3.3,4.8,5  c0.8,0.9,1.5,1.8,2.2,2.8c0.2,0.3,0.2,0.6,0.4,0.9c0.4,0.5,0.5,0.7,0.9,1.4c0.5,1,1.3,1.8,1.5,2.9c-1.6,0.4-1.7-0.9-2.8-1.5  c-0.3-0.2-1.1-0.2-1.8-0.4c-0.6-0.2-1.1-0.5-1.6-0.6c-1.4-0.2-2.9,0.2-4,0.6c-1.5,0.5-3.2,0.7-4.2,1.4c-0.5,0.3-1.4,0.8-1.8,1.2  c-1.1,0.9-1.6,2.3-2.7,2.8c-1.4-0.4-2.5-1.3-3.7-2c-1.1,0.3-1.8-0.8-3-0.9c-0.4,0-0.9,0.2-1.5,0.2c-0.8,0.1-1.6-0.1-2.3-0.1  c-1.1,0.1-3.5,0.9-4.6,1.5c-1.1,0.6-2.4,1.8-3,2.9c0.3,1.1,0.5,2.5,0.9,4.2c0.4,2.1,0.3,4.3,0.9,6.8c0.2,1,0.6,2.3,0.8,3.7  c0.1,0.4-0.1,0.9-0.1,1.4c0.1,0.8,0.5,1.7,0.6,2.5c0.1,0.4,0,0.7,0,1.1c0.2,0.7,0.5,1.3,0.6,2.1c0.1,0.9-0.3,1.6,0.4,2.4  c-0.1,1.9,0.7,3.8,0.7,5.7c0,0.1-0.3,0.2-0.2,0.4c0,0,0.3,0.4,0.3,0.4c0,1.1-0.5,2.2-0.1,3.3c-1.2,0.6-0.5,2.2-1.1,3.3  c-1.1,1.8-4.8,2.8-7.2,3.1c-1-0.5-2.2-0.8-3.3-1.3c-0.6-0.6-1.2-1.4-1.8-2.2c-0.4-0.6-0.7-1-1.2-1.8c-1.1-1.9-1.8-5.1-2.1-7.5  c1.1-0.7,2.3-0.7,3.7-0.7c0.5,0.7,0.3,1.6,0.5,2.5c0.1,0.6,0.6,1.2,0.7,1.8c0.2,0.9,0,1.1,0.6,2.1c1.1,1.9,2.9,3.9,5.7,2.1  c2.4-1.5,1.1-8.2,0.7-11.6c-0.2-2-0.6-3.6-0.9-6c-0.3-2.8-1.3-5.1-1-7c-0.1-0.4-0.5-0.6-0.6-1.1c0-0.9,0.1-1.7-0.1-2.6  c-0.1-0.4-0.4-0.7-0.4-1.2c-0.2-0.9-0.1-2-0.3-3.1c-0.1-0.7-0.2-2.1-0.5-2.6c-0.4-0.6-2.9-1.4-4-1.4c-0.3,0-0.6,0.2-1,0.3  c-2.6,0.4-5.6,0-7.8,1.1c-1.2,0.6-1.9,2.1-3.3,2.5c-0.3,0.4-0.5,1-0.9,1.5c-0.3,0.4-0.8,1.2-1.2,1.3c-1.1,0.3-2.9-2.1-4-2.3  c-1.3,0.1-2.3-0.9-3.7-0.9c-3.2-0.1-6.9,1.1-9.3,2.7c-0.4,0.3-0.9,0.6-1.2,1c-0.5,0.5-0.6,1.6-1.4,1.4c-0.5-0.3-0.3-1-0.2-1.5  c0.2-1.5,1.1-3.4,1-5.3c0.6-1.6,1.5-3,1.7-5c1.3-1.8,1.8-4,2.9-5.8c0.4-0.6,1.1-1.3,1.6-2c1-1.4,1.8-2.5,3.1-3.7  c0.2-0.2,0.5-0.2,0.6-0.4c0.3-0.4,0.4-1,0.7-1.3c0.4-0.5,1.2-0.9,1.8-1.5c2.8-2.5,6.3-4.5,10.1-6.5c1.8-0.9,4.8-2,7.2-2.5  c0.7-0.2,1.5,0.1,2.1-0.4c0.4-1.4-0.3-2.7-0.6-4C306.8,21.6,308,22.1,309.5,21.4L309.5,21.4z M306,39.9c0.3,0,0.5-0.1,0.5-0.3  C306.2,39.5,306,39.6,306,39.9L306,39.9z"></path>	<path class="st0" d="M199.5,39.3c0.1,0,0.2,0,0.3,0c0,0.1,0,0.2,0,0.3c-0.1,0-0.2,0-0.3,0L199.5,39.3L199.5,39.3z"></path>	<path class="st0" d="M172,131.2c0.3-0.1,0.4,0,0.4,0.2c-0.1,0-0.3,0-0.4,0.1L172,131.2L172,131.2z"></path>	<path class="st0" d="M199.8,26.9c0.4-0.6,0-0.8,0.1-1.4c0.6-0.3,0.9-0.9,1-1.5c1.5-0.6,3.2-0.5,4.9-0.9c0.7-0.1,1.7-0.3,2.7-0.4  c3.6-0.4,7.6-0.8,11.5-1.6c1.8-0.4,4.7-0.6,7.2-0.9c3.1-0.5,5.9-1.5,8.7-1.4c0.2,0.3,0.4,0.5,0.6,0.7c0.4,2.6,0.7,5.7,1,8.9  c0,0.2,0.2,0.4,0.2,0.6c0,0.2-0.2,0.4-0.2,0.4c0.1,0.7,0.5,1.4,0.7,2.2c1.3,5.4,1.6,11.4,2.9,16.9c0.3,1.1,0.3,2.3,0.5,3.4  c0.1,0.8,0.5,1.6,0.6,2.3c0.9,5.1,1.3,10.4,2.2,15.9c0.6,3.5,1.6,7.3,2,10.9c0.3,2.2,0.7,4.7,1,7c0.4,3.4,1.4,7.2,2,10.8  c0.4,2.7,0.6,5.3,1.2,7.5c0.4,1.2-0.1,2.6,0.7,3.6c-0.2,0.3-0.1,0.7-0.1,1.1c0,0.5,0.2,0.6,0.4,0.9c-0.4,1.6,1.6,4.5-0.2,5.8  c-2.6,0.1-6.5,0.5-9.7,1.3c-0.2,0.1-0.6,0.4-0.6,0.4c-0.9,0.2-1.7,0-2.5,0.2c-0.4,0.1-0.7,0.4-1.2,0.4c-1.3,0.2-2.6,0.1-3.9,0.3  c-1.3,0.2-2.5,0.8-3.8,1.1c-3.3,0.7-7.2,0.3-9.9,1.7c-1.2-0.8-2.2,0.4-3.5,0.8c-0.7,0.2-1.3,0.1-2,0.2c-1.6,0.2-3.1,0.8-4.5,0.4  c-0.5-0.1,0,0.5-0.3,0.5c-4.4,0.6-9.1,1.9-14,2.5c-2.4,0.3-5.2,1-8.4,1.5c-2.6,0.4-5.1,1.2-7.5,1.5c-1.5,0.2-5.6,0.5-6.6-0.1  c-3.1-0.4-1.9-0.5-5.2-1.2c-1-0.2-1.8-0.8-2.8-0.9c-0.6-0.1-2.6-0.5-3.2-0.6c-0.5-0.1,0.5,0.1,0,0.4c-0.2,0.2-0.9,0-0.9,0.4  c0.8,0.8,1.3,0.4,2.2,1.1c1.6-0.5,4.1,0.1,5.7,0.8c0.1,0.5-0.7,0.4-0.8,0.7c1,0.8,1.4-1.1,2.6-0.5c-0.1,0.2-0.3,0.3-0.2,0.7  c-0.4,0.1-0.3-0.1-1.1,0c-0.4,0.6-0.7,0.5-1.4,0.7c-0.4,0,0-0.1-0.4-0.2c-0.5-0.1-1.6,0.5-1.7-0.3c-0.4,0.5-1.3,1-2.2,1  c-0.6,0-1-0.7-1.7-0.6c-0.1-0.4,0.2-0.8-0.2-1.2c-0.3-0.2-0.5,0.2-0.8,0.4c0,0.7,0.5,0.5,0.7,1c-0.5,0.4,0.2,0.9,0.2,1.5  c-2.2,0.8-4.4,0.5-6.8,1.3c-0.9,0.3-3.1,0.7-4.3,0.8c-0.4,0-0.7,0.2-1,0.1c-0.9,0.3-1.9,0.5-3,0.6c0-0.6,0-0.6-0.1-0.8  c-0.1-0.5,0.1-1,0-1.6c-0.2-1.1-0.3-1.3-0.6-2.7c-0.5-2.3-0.4-3.8-0.6-5.5c0-0.3-0.3-0.5-0.4-0.8c-0.6-1.8-0.4-4.4-0.7-5.8  c-0.3-1.4-0.8-2.8-0.5-4.1c-0.6-0.5-0.5-1.3-0.6-2.2c-0.2-2.3-0.8-4.7-1.1-7.3c-0.3-2.3-1.1-4.7-1-6.7c-1.3-5.8-2.3-11.4-3-17.4  c-0.2-1.4-0.2-2.4-0.5-3.3c0-0.1-0.3-0.3-0.3-0.4c0-0.2,0.2-0.5,0.2-0.7c0-0.5-0.5-1.4-0.6-2.1c0-0.3,0.2-0.7,0.1-1  c-0.2-1.3-0.7-2.4-0.9-3.6c-0.2-0.5,0.3-0.4,0.3-0.7c-0.2-0.4-0.4-0.7-0.6-1c0.1-1.4-1-3.5-0.6-4.8c-0.4-0.9-0.6-2-0.7-3  c0-0.3,0.2-0.7,0.2-0.7c0-0.1-0.3-0.1-0.3-0.2c-0.1-0.6-0.4-2.4-0.5-3.2c-0.2-1.6-0.2-3.3-1-4.9c0.3-0.2,0-1,0.2-1.2  c-0.7-1.1-0.3-2.5-1-3.8c-0.1-0.4,0-0.7,0.3-0.9c-0.6-0.3-0.8-1.5-0.6-1.9c-1.1-2-0.8-5.3-1.8-6.9c0.4-0.6-0.3-0.9,0.1-1.2  c-0.2-0.6-0.5-0.3-0.8-0.6c0.6-1,1.6-0.7,2.6-0.8c5.8-0.6,9.5-1.7,12.2-1.9c0.3,0.1,0-0.3,0.6-0.2c0.7-0.1,0.9,0.3,1.6,0  c0.2,0,0.4,0.4,0.7,0.4c1.4,0.1,2,0.4,2.8-0.5c0.4,0.4,0.9,0.3,1,0.8c1.5,0.6,0.6-1.1,2-0.7c0.3-0.4,0.3-1,0.8-1.3  c0.8,0.1,1.2-0.2,2.1-0.3c0.2,0.5,0.4,0.9,0.8,0.8c-0.7,0.5,0.6,1.7-0.4,1.6c0.6,0.7,6.9,0.1,8,0.4c-0.1,0.5-6.5,2.1-6.6,2.5  c0.3,0.6,1.5,0.1,2,0.5c-0.5,1-1.2,0.5-1.9,0.6c-2.1,0.3-4.6,0.7-6.8,1.3c-0.5,0.1-0.9,0.4-1.4,0.5c-0.4,0.1-0.7-0.1-1.1-0.1  c-0.7,0-1.5,0.4-2.1,0.2c-1.9,1.7-6.9-0.2-8.6,2.2c0.8,3.8,1.4,7.9,2.2,12c0.7,3.8,0.9,6.8,1.8,11.1c0.2,0.8,0.6,1.7,0.6,2.3  c0,0.3-0.2,0.6-0.1,1c0.1,0.6,0.4,1,0.5,1.5c0.4,2.1,0.5,4.3,0.9,6.3c0.2,1.3,0.6,2.6,0.7,3.9c0.3,2.8,0.9,5.4,1.3,8.2  c0.6,3.5,1,7.1,1.6,10.7c1.2,7.2,2.6,14.5,3.5,21.6c0.3,2.8,0.9,5.6,1.4,8.3c1.2-0.1,3.1-0.3,4.8-0.7c1-0.2,1.8-0.7,2.7-0.8  c0.4-0.1,0.9,0,1.3-0.1c0.3-0.1,0.6-0.3,1-0.4c0.3-0.1,0.8,0.1,1.1,0c1.2-0.3,2.3-1.1,3.4-1.5c0.9-0.3,1.8-0.2,2.8-0.4  c0.1,0.5,1.1,0.3,0.6,0.3c0.9,0.4,2,0.1,3.4-0.3c-0.7-0.4-1.8,0.8-2.5-0.2c1.3-0.1,3.4-1.1,4.4-0.1c4.9-0.6,9.4-1.8,14-2.3  c4.3-0.5,9.1-1.8,14.1-2.5c1.9-0.2,4.2-0.6,6-1.2c1.7-0.5,4.1-0.8,5.9-1.3c0.3-0.1,1,0,1.3-0.1c0.1,0,0.2-0.3,0.2-0.3  c0.3,0,0.6,0.2,1.2,0.1c0.4-0.1,0.6-0.3,1-0.4c1.2-0.3,2.6,0,4-0.5c1-0.3,2.7-0.6,4.2-0.9c3.9-0.7,8-1.3,12-1.9  c1.7-0.2,3.3-1.1,5-0.7c0.1,0,0.1-0.2,0.2-0.2c0.6-0.8,0.1-1.9,0-2.8c-0.2-1-0.3-2.1-0.5-3.2c-0.4-2.4-0.8-4.9-1.2-7.1  c-0.1-0.7-0.3-1.5-0.3-2.2c0-0.6,0.1-1.1,0-1.6c-0.2-0.8-0.4-1.4-0.5-2.5c-0.1-1.7-0.6-3.4-0.9-5.1c-0.7-3.7-0.9-7.6-1.7-11.2  c-0.1-0.3-0.4-0.6-0.4-0.9c-0.3-1.6-0.5-3.2-0.7-4.8c-1.2-8.4-2.6-16.6-4.3-25.3c-0.6-2.9-1-6.2-1.7-8.9c-0.4-1.5-0.3-3-0.5-4.5  c-0.1-0.4-0.3-0.7-0.4-1.2c-0.3-1.4,0-2.9-0.6-4.2c-1.8-0.1-4.2,0.2-6.2,0.9c-0.5,0.2-0.9,0.5-1.4,0.6c-0.4,0.1-0.7-0.2-1.1-0.2  c-1.7-0.1-3.9,0.5-6.1,0.9c-2.5,0.5-5.3,1-7.8,1.3c-1.6,0.2-3.5,0.1-4.9,0.3c-1.5,0.3-2.6,1.1-4,1.1c-0.5,0.2-0.1-0.9-0.6-0.7  c-0.5,0.2,0.2,0.5,0,0.7c-8.3,0.7-13,1.7-20.8,2.8c-10.8,1.8-6.2,0.5-4.1-1.4c0-0.3-2.3-0.5-2.2-1c0.4-0.5,7.5-2.8,8.3-2.4  c3.1-1.1-12.7,0.9-9.1,0.4c1-0.1,25.1-4.9,26.1-5.4c0.3,0.1-0.1,0.9,0.3,1c0.2-0.3,0.2,0,0.5-0.1c0.5,0,0-0.7,0.1-1.1  c0.4,0.3,0.8,0.6,1.1,0.2c0.3,0-0.1,0.4-0.1,0.5c-0.2,0.6,0.5,0.2,0.6,0.5C199.6,26.1,199.7,26.1,199.8,26.9L199.8,26.9z M142,34.2  c-0.1-0.3,0.6,0,0.5-0.3C142.4,33.6,141.7,34.1,142,34.2L142,34.2z M198.1,26.3c0.4,0.1,0.3-0.6-0.1-0.4L198.1,26.3L198.1,26.3z   M182.8,29.3c0.5,0,0.6-0.1,1.2,0c-0.4-0.2-0.7-0.6-1.2-0.6C182.9,28.9,182.9,29.1,182.8,29.3L182.8,29.3z M197.7,27.3  c0-0.3,0.2-0.4,0.2-0.7c-0.1,0-0.3,0-0.4,0.1C197.5,27,197.3,27.3,197.7,27.3L197.7,27.3z M148.6,34.8c0,0.2,0,0.4-0.1,0.5  c0.7-0.4,1.3,0.1,1.4-0.3c-0.5,0.2,0-0.7-0.5-0.7C149.3,34.6,148.9,34.7,148.6,34.8L148.6,34.8z M145,35.1  c-0.1-0.1-0.4,0.1-0.4,0.2C144.5,35.8,145.3,35.3,145,35.1L145,35.1z M198.1,27.7c0.4,0.1,0.3-0.6-0.1-0.4  C198,27.4,198.1,27.5,198.1,27.7L198.1,27.7z M152.8,34.2c-0.3,0.1-0.3-0.2-0.7,0C152,34.6,152.9,34.4,152.8,34.2L152.8,34.2z   M197.6,28.4c0.2,0.1,0.5,0.1,0.5-0.2C197.9,28.1,197.6,28.1,197.6,28.4L197.6,28.4z M197.8,28.9c0.1,0,0.2,0,0.3,0  c0-0.1,0-0.2,0-0.3c-0.1,0-0.2,0-0.3,0L197.8,28.9L197.8,28.9z M199,29.2c0-0.2-0.1-0.4-0.1-0.5c-0.1,0-0.3,0-0.4,0.1  C198.5,29,198.6,29.2,199,29.2L199,29.2z M198.1,30c0.2,0,0.2,0.1,0.4,0.1c0-0.2-0.2-0.3-0.3-0.4C198.2,29.8,198.1,29.8,198.1,30  L198.1,30z M146.7,120.3c0.6,0,0.8-0.3,0.7-0.9C146.6,119.5,146.4,119.8,146.7,120.3L146.7,120.3z M217.4,120.6  c0-0.4-0.4-0.4-0.7-0.4C216.6,120.7,217.1,120.5,217.4,120.6L217.4,120.6z M217.3,123.3c0-0.1,0-0.2,0.1-0.2c0-0.2-0.1-0.3-0.3-0.2  C217.1,123.1,217.1,123.3,217.3,123.3L217.3,123.3z"></path>	<path class="st0" d="M123.3,84.8c0.2,0.3,0.5,0.3,0.6,0.7c0.2,0.5,0,1.6-0.1,1.8c1,1.2,0.6,3.1,1,4.7c0.1,0.3,0.4,0.6,0.4,0.9  c0.3,1.6,0.5,3.3,0.3,4.7c1,0.6,0.5,2.3,0.8,3.7c0.2,1,1.4,3.2,0,3.8c0.4,0.3,0,0.6,0,0.9c0.3,0.3,0.4-0.2,0.8,0  c0.8,3.3,0.9,7.1,1.7,10c-0.1,0.4,0,0.8-0.2,1.1c0.9,1.9,0.8,4.2,1.1,6.5c0.2,1.4,0.7,2.9,0.9,4.3c0,0.3-0.2,0.5-0.1,0.8  c0,0.8,0.6,1.8,0.7,2.7c0.1,1.3,0.5,4,0.9,5.4c0.1,0.3,0.3,0.5,0.4,0.8c-0.3,0.2-0.1,0.8-0.4,1c-0.5,0.3-0.7,0.1-1.2-0.1  c-0.4,0.2-0.6,0.6-1,0.8c-0.2,0-0.6,0.2-1.1,0.2c-0.2,0-0.5-0.2-0.4-0.2c-0.3,0.1-0.6,0.4-0.9,0.5c-1.2,0.4-2.8,0.3-4.1,0.5  c-0.9,0.1-1.8,0.3-2.6,0.7c-2.3-0.1-5.7,1.4-7.7,1.1c-1.7,0.8-3.5,0.9-5.5,1.1c-2.6,0.2-5.5,1.1-8.3,1.6c-1.1,0.2-2.3,0.5-3.4,0.5  c-0.7,0-0.3-0.1-1.1,0.2c-0.4,0.1-0.8,0-1.2,0c-0.3,0.1-0.6,0.3-0.9,0.4c-0.4,0.1-0.9,0-1.2,0c-0.4,0.1-0.7,0.4-1,0.4  c-0.8,0.1-1.6-0.1-2.4,0.1c-0.6,0.1-1.2,0.5-1.8,0.7c-2.5,0.5-5.7,0.8-8.6,1.5c-0.7,0.2-1.5,0.4-2.1,0.4c-0.4,0-0.8,0.1-1.1-0.2  c-1.2,1.2-4,0.6-5.6,1.6c-2-0.2-5.4,0.5-8,1c-3.3,0.7-6.8,1-9.6,1.6c-0.6,0.1-1.1,0.3-1.8,0.4c-3.5,0.5-8,1.5-11.6,2  c-0.8,0.1-1.7,0.5-2.5,0.6c-1.3,0.2-1.9,0-3,0.8c-1.2-0.4-1.5-0.1-2.3,0.5c-0.3-0.6-0.7,0.2-0.4-0.2c-1.7,0.4-3,1.2-5.4,1.1  c-0.2-0.3-1,0.3-0.9,0c-0.7,0.1-1.3,0.1-1.9,0c0.1-1.7,1-4.5,0.2-6c0.1-0.4-0.2-0.6,0-0.9c-1.1-1.9-0.3-3.8-0.5-5.5  c-0.1-0.6-0.4-1.4-0.4-2c0-0.2,0.2-0.7,0.2-0.7c0-0.2-0.3-0.5-0.4-0.6c-0.4-1.3,0.2-2.9-0.6-4c0.1-0.8-0.2-1.9,0.2-2.6  c-0.4-0.4-0.4-0.4-0.4-2.3c-0.3-0.9-0.1-1.6-0.6-2.2c0.4-1.2-0.6-1.9-0.2-3.1c0-0.5-0.3-0.4-0.3-0.9c0.1-0.3-0.6-0.9-0.1-0.8  c-0.6-1.7-0.8-3.8-0.8-5.4c-0.9-1.4-0.4-3.7-1.3-5.3c0.4-0.3-0.4-1.1,0.3-1.1c-0.7-2.2-1-3.3-0.9-4.3c-0.4-0.4-0.4-1.1-0.2-1.6  c-0.2-0.2-0.2-0.7-0.5-0.9c0.3-1.3-0.4-2.8-0.6-4.1c-0.1-0.4,0-0.8,0-1.2c-0.1-0.4-0.4-0.8-0.4-1.2c-0.1-0.8,0.2-0.7-0.3-2.1  c0-1.5-0.2-2-0.2-2.9c-0.1-0.1-0.3-0.1-0.3-0.2c0.3-1.9-0.6-3.4-1-5.8c0.1-2-0.3-2.2-0.7-4.9c-0.4-0.7-0.4-1.7-0.1-2.3  c-0.1-0.5-0.7-0.1-0.8-0.6c0.3-1.6-0.2-2.8-0.5-4.4c-0.1-0.3-0.1-0.5,0-0.7c-0.2-0.4-0.3-0.4-0.5-0.9c0.1-0.5-0.2-1.1,0-1.5  c0-0.6-0.2-0.5-0.3-1c0.3-0.8-0.3-1.3-0.1-2.3c-0.7-0.7-0.3-2-1-2.8c0.1-0.1-0.1-0.4,0.1-0.4c-0.3-0.3-0.1-0.3-0.5-0.7  c0.2-0.8,0.3-1.4-0.3-1.9c0-0.4,0.2-0.6,0.6-0.8c-0.2-0.4-0.8-0.1-0.8-0.7c0.4,0.1,0.3,0.1,0.7-0.3c-0.5,0,0-0.3-0.9-0.4  C7.1,63.7,8.1,64,8,63.5c0-0.4-0.7,0.2-0.7-0.2c-0.3-0.9,0.3-1.7-0.7-1.8c0.1-0.2,0.1-0.5,0-0.8c0.2-0.2,0.7,0.3,0.8-0.3  c-0.1-0.3,0,0.1-0.8,0c-0.7-0.7,0.1-1,0-1.9c0.3-0.3,0.4,0.2,0.5-0.4c-0.6-0.7-0.4,0.5-1.2,0c-0.2-0.3,0-1.1,0.2-1.5  c-0.7-0.4-0.7-1.8-1.1-2c0-0.9,1.1-0.9,1.1-1.8c1.7-0.7,3.3,0.2,5.3-0.6c0.1,0.1,0.2,0.3,0.2,0.6c0.6,0,0.8-0.4,1.4-0.3  c0.3,0.1,0.3,0.6,0.5,0.7c0.4-0.2,0.4-0.7,0.8-0.8c1.8,0,3.2-0.6,4.6,0c0.5-0.1-0.3-0.4,0.1-0.4c1.3-0.3,2.9-0.8,4-0.5  c0.4,0.1,0.3-0.3,0.5-0.3c0.3-0.1,0.5,0,0.5,0.2c1.2-0.3,1.7-0.2,2.7-0.4c0.2,0,0.4-0.3,0.6-0.4c0.6-0.1,1.4-0.2,2-0.2  c0.2,0,0.7,0,1,0c1.7-0.2,3.1-0.8,4.8-1.1c0.8-0.1,1.7,0,2.6-0.1c1-0.1,1.9-0.6,2.7-0.7c0.3,0,0.6-0.1,0.9,0.3  c0.4-0.2,0.9-0.5,2.3-0.6c0.4-0.3,1.2-0.3,1.8-0.1c0.4,0-0.5,1,0.9,0.8c0.3-0.4-0.4-0.4-0.7-0.4c0.1-0.6,1-0.6,1.7-0.7  c0.5-0.1,1.2-0.2,1.2,0.1c3.7-1.5,8.4-1.7,13.4-2.4c-0.1,0.1,0.1,0.1,0.1,0.3c0.5-0.2-0.1-0.2,0.4-0.5c1.8-0.6,3.7-0.5,5.4-0.8  c1.1-0.2,2-0.5,3-0.6c1,0,1.9-0.1,3.1-0.3c0.2,0,0.7-0.2,0.9-0.3c0.4-0.1,1.1-0.2,1.5-0.2c1.2-0.1,2.2-0.4,3.3-0.6  c0.3-0.1,1.4,0.1,2,0c0.2,0,0.4-0.3,0.6-0.4c1.6-0.5,3.1-0.2,4.6-0.6c0.3-0.1,0.8-0.2,1-0.3c0.7-0.2,1.2-0.1,2-0.2  c0.3,0,0.6-0.1,0.9-0.2c1.2-0.4,2.9-0.6,4.2-0.8c3.1-0.4,6.7-1,10.2-1.5c2.7-0.4,5.4-0.9,8.8-1.4c0.7-0.1,1.3-0.2,2,0.2  c0.7,0.6,0.5,1.5,0.2,2.3c0.7,1-0.1,2.6,0.6,3.3c-0.6,1.7,0.8,2.8,0.4,4.3c0.8,1.4,0.9,3.8,1.1,5.8c0.6,0.7,1,2.6,0.5,3.4  c0.7,2.1,0.9,4.3,1.2,6.6c0.2,1.6,0.8,3.2,1,4.9c0,0.3-0.2,0.5-0.1,0.8c0.1,0.7,0.5,1.6,0.6,2.5c0.1,1.2,0.6,2.7,0.7,4.1  c0.1,0.8-0.2,1.6,0.4,2.1c-0.3,0.6,0.2,1.2-0.2,1.6c0.1,0.3,0.3,0.5,0.5,0.7c-0.2,0.4-0.5,0.7-0.7,1c0.4,0.3,0.2,0.2,0.1,0.7  c0.1,0.4,0.7-0.6,0.8-0.3C122.9,82.4,124,84.1,123.3,84.8L123.3,84.8z M111.7,38.5c0.4,0,0.9,0.4,1.2,0  C112.8,37.9,111.8,37.9,111.7,38.5L111.7,38.5z M10.7,53.5c0.1,0,0.2,0.1,0.2,0.2c0.4,0,0.5-0.2,0.6-0.5  C11.1,53.4,10.8,53,10.7,53.5z M39.5,49C38.9,49.4,40,49.3,39.5,49z M68.1,44.9c0,0.3-0.4,0.2-0.3,0.5c0.6,0.1,1.4-0.5,2.4-0.5  C69.6,44.2,68.9,45.2,68.1,44.9z M94.6,41.2c0.2-0.1,0.7,0,0.5-0.3C94.8,40.9,94.6,41,94.6,41.2L94.6,41.2z M8.8,53.9  c-0.3,0-0.4-0.3-0.8-0.1C7.7,54.4,8.7,54.2,8.8,53.9z M8.9,53.8c0.1,0.5,1.3,0.8,1.4,0.1C9.8,53.6,9.4,53.5,8.9,53.8z M59.2,46.6  c0-0.4-0.5-0.2-0.7-0.3C58.4,46.9,58.8,46.7,59.2,46.6z M60.5,46.5c0.1,0,0.2,0,0.3,0c0.1-0.2,0.1-0.3-0.2-0.4  C60.6,46.2,60.5,46.3,60.5,46.5z M67.3,45.2C66.8,44.9,66.8,45.7,67.3,45.2z M92.5,41.7c-0.1-0.3,0.1-0.3,0.2-0.4  c-0.2,0.1-0.7-0.1-0.6,0.2C92.2,41.5,92.3,41.7,92.5,41.7L92.5,41.7z M96.3,41c0.1,0,0.2,0,0.3,0c0.2-0.4-0.5-0.3-0.4-0.1  C96.2,40.9,96.3,40.9,96.3,41L96.3,41z M40.8,49.4c0.5,0.1,1.6,0.3,1.7-0.4C41.8,48.8,41.3,49,40.8,49.4z M51.5,47.6  c-0.3,0.1-0.3-0.2-0.7,0C50.7,48.1,51.5,48,51.5,47.6z M115.1,38.4c0.3,0,0.2,0.3,0.6,0.2c0-0.2,0.2-0.3,0.1-0.5  C115.5,38.2,115.2,38.2,115.1,38.4L115.1,38.4z M6.9,54.2C6,54.2,6.7,54.7,6.9,54.2z M44.2,49c0.1,0.4,0.8-0.3,0.4-0.3  c0,0.2-0.3,0.1-0.4,0.1C44.2,48.8,44.2,48.9,44.2,49z M52.3,47.8c0.3,0,0.6-0.1,0.6-0.4C52.6,47.5,52.3,47.5,52.3,47.8z M55.8,47  c-0.3,0-0.6,0.1-0.9,0.1C54.9,47.8,55.8,47.3,55.8,47z M58.1,46.8c-0.3-0.2-0.4,0.2-0.7,0C57.4,47.2,58.1,47.2,58.1,46.8z M62.6,46  c-0.2,0-0.6,0.1-0.8,0.1C61.7,46.7,62.8,46.5,62.6,46z M65.9,45.7c0-0.2-0.8-0.1-0.8,0.1C65.3,45.8,66,46.2,65.9,45.7z M23.9,52.1  c0.3,0,1,0.2,1.2-0.2C24.7,52,24,51.5,23.9,52.1z M47.4,48.6l0.4-0.1c0-0.2-0.2-0.3-0.4-0.2C47.4,48.5,47.4,48.6,47.4,48.6z   M49.5,48.3c-0.3,0.2-0.7-0.3-0.8,0.1C49.1,48.4,49.5,48.9,49.5,48.3z M6.3,55.4c0.2,0,0.4-0.1,0.7-0.1c0-0.1,0-0.3-0.1-0.4  C6.5,54.9,6.4,55.1,6.3,55.4z M7.2,55.4c0,0.4,0.3,0.4,0.7,0.3c0-0.2-0.1-0.4-0.1-0.5C7.5,55.1,7.6,55.4,7.2,55.4z M50.3,49.8  c0.2-0.1,0.4-0.2,0.5-0.3C50.5,49.5,50.3,49.6,50.3,49.8z M80,45.7c0.2,0,0.3-0.2,0.4-0.3C80.1,45.5,79.9,45.5,80,45.7z M99,43.1  c0.1,0,0.2,0,0.3,0c0-0.1,0-0.2,0-0.3c-0.1,0-0.2,0-0.3,0L99,43.1L99,43.1z M39.6,52.1c0.3-0.1,0.2,0.4,0.5,0.3  c-0.1-0.2,0.1-0.3,0.1-0.5C39.9,51.7,39.6,51.8,39.6,52.1z M48.1,51.3c0.4-0.4,0.7,0.4,1.1,0c-0.1-0.4-0.5-0.3-0.9-0.4  C48.3,51,48.1,51.1,48.1,51.3z M45.8,51.6c0.2,0,0.3-0.2,0.4-0.3C46,51.3,45.7,51.3,45.8,51.6z M6.3,57.7c0.1,0,0.2,0,0.3,0  c0-0.2,0.1-0.2,0.1-0.4c-0.1,0-0.3,0-0.4,0.1C6.3,57.4,6.3,57.5,6.3,57.7z M12.5,57c0.5-0.1,1-0.1,1.2-0.4  c-0.4,0.2-0.2-0.4-0.6-0.3C13.4,57,12.2,56.5,12.5,57z M30.3,54.1c0.2,0,0.4-0.1,0.7-0.1c0-0.1,0-0.3-0.1-0.4  C30.5,53.6,30.4,53.9,30.3,54.1z M46.4,51.6c0,0.1,0,0.2,0,0.3c0.4,0.2,0.3-0.5,0.1-0.4C46.5,51.6,46.5,51.6,46.4,51.6z M53.2,51.4  c0.5-0.2,0.7-0.5,1.1-0.7c-0.4,0.2-0.2-0.4-0.6-0.2C53.8,51,53.4,51.1,53.2,51.4z M45.7,52.2c0.1,0,0.2,0,0.3,0c0-0.1,0-0.2,0-0.3  c-0.1,0-0.2,0-0.3,0C45.6,52,45.6,52.1,45.7,52.2z M16,56.9c0.1-0.4,1.2,0,1.1-0.6C16.7,56,15.5,56.6,16,56.9z M35.1,53.8  c0.1,0,0.2,0,0.3,0c0-0.1,0-0.2,0-0.3c-0.1,0-0.2,0-0.3,0C35.1,53.7,35.1,53.8,35.1,53.8z M58.6,50.4c0.2,0,0.3-0.2,0.4-0.3  C58.8,50.1,58.5,50.1,58.6,50.4z M44.5,52.6c0.2-0.1,0.7,0.1,0.6-0.2C44.9,52.2,44.5,52.3,44.5,52.6z M47.6,52.3  c0.4-0.1,1.1,0.2,1.2-0.3C48.2,52.2,47.6,51.7,47.6,52.3L47.6,52.3z M49.4,52c0.2,0.2,0.8,0.1,0.6-0.4C49.7,51.7,49.5,51.8,49.4,52  z M47.4,52.4c-0.2,0-0.2-0.1-0.4-0.1C46.9,52.7,47.5,52.7,47.4,52.4L47.4,52.4z M28.2,55.8c0.1,0,0.3,0,0.4-0.1  c0-0.2,0-0.4-0.2-0.4C28.4,55.6,28.1,55.5,28.2,55.8L28.2,55.8z M35.9,54.7c0.1,0,0.2,0,0.3,0c0-0.2,0.1-0.2,0.1-0.4  c-0.1,0-0.3,0-0.4,0.1C35.9,54.4,35.9,54.5,35.9,54.7L35.9,54.7z M37.2,54.3c0.2,0.2,0.7,0.1,0.6-0.2C37.6,54,37.2,54,37.2,54.3  L37.2,54.3z M116.2,42.6C115.4,42.5,116,43,116.2,42.6z M43.5,54.4c0.2,0,0.4-0.1,0.5-0.1c0-0.1,0-0.3-0.1-0.4  C43.7,53.9,43.6,54.1,43.5,54.4L43.5,54.4z M43.6,53.9c-0.3,0-0.2-0.3-0.6-0.2C43,54.1,43.6,54.2,43.6,53.9L43.6,53.9z M30.3,56.2  c-0.2,0-0.3-0.2-0.5-0.1C29.8,56.6,30.2,56.5,30.3,56.2L30.3,56.2z M68.3,51c0.4,0,0.6-0.3,0.6-0.6C68.5,50.4,68.2,50.5,68.3,51  L68.3,51z M89.4,47.7c0.4,0.1,0.8-0.4,0.5-0.5C90,47.6,89.1,47.2,89.4,47.7L89.4,47.7z M12.5,59.3c0.6-0.1,0.9,0.1,0.9-0.5  C12.9,58.8,12.6,58.8,12.5,59.3L12.5,59.3z M56.5,52.6c0.2-0.1,0.7,0.1,0.6-0.2C56.8,52.4,56.6,52.2,56.5,52.6L56.5,52.6z   M68.3,51.2c-0.2,0-0.3-0.2-0.5-0.1C67.6,51.6,68.4,51.5,68.3,51.2L68.3,51.2z M85,48.8c-0.5,0.1-0.4-0.4-0.9-0.3  c-0.3,0.4-1,0.8-1.6,0.9c-0.1,0-0.3-0.2-0.6-0.2c-0.6,0-0.6,0.3-0.7-0.2c-1.1,0.2-2.8,1-3.6,0.4c-0.5,0.1-0.5,0.7-1.1,0.7  c-0.9-0.4-3.1,0.8-3.9,0.2c-0.9,0.7-2.4,0.4-3.3,1.2c-0.8-0.3-1.8,0.3-2.6-0.2c-0.4,0.3-0.8,0.6-1.4,0.7c0.2-0.5-1.4,0.2-1.9-0.1  c-0.4,0.1-0.5,0.3-0.9,0.4c-0.3-0.2-1,0.1-1.2-0.1c-1.5,0.8-4.2,0.8-6,1.4c-0.3-0.6-1.3,0.5-1.8-0.1c-0.4,0.3-1,0.5-1.5,0.2  c-0.1-0.3,0.8,0,0.5-0.5c-0.9,0.7-1.8,0.8-2.8,0.8c-1.8,0-3.6,1.1-5.3,0.8c-4.6,1.4-9.9,1.4-15.1,2.6c-0.4,0.2-0.2-0.5-0.7-0.3  c-0.6,0.6-0.9,0.1-1.6,0.4c-0.7,0-0.8,0.8-1.4,0.5c-0.1-0.3,0.7-0.8,0-0.8c-0.5,0.4-0.2,0.4-0.3,0.9c-2.6,0-6.1,0.9-9.5,1.3  c-0.4,0.5-1.2,0.3-1.5,0.8c-0.1,1.2,0.9,2.4,0.2,3.3c0.4-0.2,0.4,0.1,0.6,0.3c0.1,2.1,0.9,4.4,1,5.9c0,0.3-0.7,0.1-0.5,0.6  c0.3-0.1,0.6-0.1,0.7,0.2c0.1,2.4,1.1,4.1,0.7,5.6c0.4,0.1,0.4,0.8,0.7,1.1c-0.1,0.2-0.4,0.3-0.3,0.6c0.4,1,1.3,3.5,0.5,4.6  c0.7,0.5,1,2,0.7,3c0.1,0.2,0.4,0.1,0.3,0.5c-0.3,1.4,1,3.1,0.5,4.3c0.5,0.6,0.7,1.8,0.3,2.2c0.8,0.6,0.5,1.5,0.6,2.3  c0,0.4,0.3,0.7,0.4,1c0.1,0.4,0,0.8,0,1.2c0.2,1.3,0.7,3,0.4,3.7c0.1,0.5,0.6,0.4,0.6,1c0.1,2,0.3,4,0.6,6.1c0,0.3,0.4,0.6,0.4,1  c0,0.2-0.2,0.5-0.2,0.7c0.1,0.2,0.3,0.3,0.4,0.6c0.3,2.4,0.4,4.9,1.3,6.8c0,1.2,0,2.7,0.3,3.9c0.1,0.4,0.3,0.6,0.4,0.9  c0.2,1.2,0.1,2.5,0.4,3.6c0.1,0.3,0.4,0.6,0.4,0.9c0.1,0.4,0,0.7,0,1.1c0.1,0.3,0.3,0.6,0.4,1c0.1,0.3-0.1,0.8-0.1,1.2  c0.1,1.4,0.6,2.9,0.9,4.1c0.2,0.7,0.1,1.7,0.2,2.5c0.1,0.5,0.4,1,0.5,1.4c0.1,0.7-0.1,1.3,0,2c0.1,0.5,0.4,1,0.5,1.5  c0.6,2.6,0.5,5.3,1.1,8.1c8.8-1.5,18-2.9,26.9-4.6c1-0.2,2.2-0.5,2.9-0.6c4.2-0.6,8.6-1.7,12.2-2.2c0.8-0.1,1.4-0.3,2.1-0.4  c0.3-0.1,0.8,0.1,1.1,0.1c3.5-0.3,7.4-1.8,11.4-2.2c0.5-0.1,1.1,0.1,1.6,0c1.7-0.1,3.4-0.7,5-1c1.4-0.3,2.9-0.3,3.7-0.8  c1.7,0.4,3.1-0.5,4.8-0.7c0.4-0.1,0.9,0.1,1.4,0.1c0.5-0.1,1-0.4,1.5-0.5c3.3-0.8,7.1-1.3,10.5-1.8c1-0.2,2.1-0.5,3-0.6  c0.4,0,0.7,0.1,1.1,0.1c1.7-0.1,3.4-1.1,5.1-0.9c0.2-0.3,0.4-0.7,0.7-0.9c0-0.7-0.3-1.3-0.4-2c0-0.3,0.2-0.6,0.1-0.8  c0-0.4-0.4-0.7-0.4-1.2c0-0.6-0.1-0.9-0.2-1.5c-0.2-1.1-0.2-2.2-0.4-3.3c-0.2-1.3-0.8-2.8-0.3-3.9c-1-1.2-0.4-3.3-1.2-4.5  c0.3-0.9-0.1-2.2-0.4-3.3c0.1-0.3,0-0.4,0.3-0.7c-0.8-0.4-0.4-1.4-0.5-2.2c-0.1-1.3-1-2.8-0.8-4.5c0.1-0.5-0.4,0-0.3-0.5  c0.1-3.4-1.6-7.2-1.3-10.5c-1-2.1-0.9-4.9-1.4-7.4c-0.1-0.7-0.5-1.4-0.6-2.1c-0.1-0.4,0.2-0.8,0.1-1.2c0-0.3-0.3-0.2-0.3-0.4  c-0.4-1.1,0.1-2.5-0.6-3.3c0.4-1.4-0.6-2.8-0.3-4c-0.4,0-0.5-0.7-0.5-0.9c-0.2-0.7,0-1.5,0-2.2c-0.1-1-0.5-2-0.7-2.9  c-0.1-0.5,0-1.2-0.1-1.7c-0.1-0.8-0.6-1.5-0.7-2.3c-0.1-0.4,0.1-0.8,0.1-1.2c-0.3-2.4-0.7-4.7-1.4-6.8c0.2-0.2,0.2-0.6,0.1-1  c-0.4-0.7-0.4-1.3-0.3-2.1c-0.5-0.9-0.7-2.1-0.5-3.3c-0.3-0.2-0.6-0.4-0.7-0.8c0.1-1.9-0.4-3.2-0.7-5c-0.6-0.4-1.7,0-2.1,0.4  c-0.7-0.3-1.5,0.3-2.1,0.2c-0.4-0.1-0.3-0.4-0.7-0.4c-0.8,0.8-1.7,0.4-3,0.8c-0.4,0-0.7-0.1-1-0.3c-0.1,0.1,0,0.5-0.3,0.5  c-0.4,0.2-0.3-0.3-0.7-0.2c-1.6,0.7-3.7,0.7-5.1,1.4c-0.3-0.2-0.7-0.3-1-0.5C91.6,48.3,88,47.7,85,48.8L85,48.8z M23.2,57.8  c0.5,0,0.5-0.3,0.7-0.5C23.6,57.3,23.1,57.3,23.2,57.8L23.2,57.8z M59.3,52.3C58.8,52.9,59.8,51.7,59.3,52.3z M31.6,56.5  c0.3-0.1,1,0.1,0.8-0.4C32,56.2,31.7,56.3,31.6,56.5L31.6,56.5z M54.5,53.3c-0.2,0.1-0.8,0-0.8,0.2C53.9,53.4,54.5,53.6,54.5,53.3  L54.5,53.3z M12.6,70c0.2,0,0.3-0.2,0.4-0.3C12.8,69.7,12.5,69.7,12.6,70L12.6,70z M11.7,70.8c0.4,0.1,1.1,0,1.1-0.6  C12.3,70.2,11.6,70.2,11.7,70.8L11.7,70.8z M13.5,75.3c0.1,0,0.2,0,0.3,0c0.2-0.4-0.5-0.3-0.4-0.1C13.5,75.1,13.5,75.1,13.5,75.3  L13.5,75.3z M12.8,75.9c0.2,0,0.3-0.2,0.4-0.3C13,75.6,12.7,75.6,12.8,75.9L12.8,75.9z M14.5,79.4C15.1,79.8,14.9,78.9,14.5,79.4z   M13.4,84.5c0.2,0.3,0.6-0.2,0.2-0.3C13.6,84.3,13.4,84.3,13.4,84.5L13.4,84.5z M20.1,98.9c0-0.2,0.2-0.3-0.1-0.4  C20.1,98.6,19.9,98.8,20.1,98.9L20.1,98.9z M20.4,131.2c0.1,0,0.3,0,0.4-0.1c0-0.1,0-0.3-0.1-0.4c-0.1,0-0.2,0-0.3,0  C20.5,131,20.4,131,20.4,131.2z M131.1,134.3c-0.1-0.1-0.4,0.1-0.4,0.2C130.6,135,131.4,134.4,131.1,134.3L131.1,134.3z   M83.2,143.7c0.3,0.2,0.3-0.2,0.8-0.1c-0.1-0.2-0.1-0.6-0.5-0.5C83.5,143.4,83.2,143.5,83.2,143.7z M23,156.8  c0.7,0.1-0.2,0.3-0.2,0.7c0.4,0.4,0.6,0.2,1.1,0c-0.1-0.5-0.7-0.4-0.4-1C23.2,156.5,23,156.6,23,156.8L23,156.8z M36.3,155  c0.1,0,0.2,0,0.3,0c0-0.1,0-0.2,0-0.3c-0.1,0-0.2,0-0.3,0C36.3,154.8,36.3,154.9,36.3,155L36.3,155z M55.9,152.2  c0.1,0,0.3,0,0.4-0.1c0-0.1,0-0.3-0.1-0.4c-0.1,0-0.3,0-0.4,0.1C55.9,151.9,55.9,152.1,55.9,152.2L55.9,152.2z"></path>	<path class="st0" d="M149.6,48.3c0.3-0.1,0.5-0.7,0.9-0.4c-0.4-0.5,0.7-0.5,0.7-1c-0.3-0.3-1.2,0.6-1.3,0.5  c-0.2-0.8-0.8-1.1-1.3-1.6c0.8-0.7,1.6-0.5,2.2,0.2c0.4-0.2-0.1-0.5,0.3-0.9c1.3-0.3,2.1-0.1,3.5-0.1c0.4-0.1,0.5-0.4,0.7-0.6  c0.9-0.1,1.9-0.4,2.4,0c2.1-1.2,6.4-1.2,9.7-1.8c0.8-0.2,1.5-0.6,2.3-0.2c-1.1,5-2.4,9.8-3.6,14.7c-0.7,0.2-1.3,0.5-1.8,0.8  c-0.3-0.1-0.4-0.6-0.9-0.4c-0.3,0.3-0.1,0.8-0.5,1.3c0.3,0.6,1,0.2,1.6,0c0.1,0.6,0.7,0.4,0.8,1c-0.2,0.9-1,2.1-0.3,2.9  c0.8-0.4,1.1-1.1,1.3-2c0.7-0.3,1-1,1.7-1.3c-0.2-0.5,0.1-0.7,0-1.1c3.1-4.4,5.9-9,8.8-13.5c0.5-0.1,1.3-0.8,1.3-1  c0-0.2-0.5,0.2-0.3-0.2c0.6-1,1.4-2,1.8-3.1c5-1,11.9-1.8,17-2.8c1.2-0.2,2.5-0.5,3.6-0.4c1.1-0.6,2.1-0.2,3.6-0.5  c1.4-0.3,3.2-0.6,4.5-0.8c4.7-0.9,10-1.3,14.3-2.2c-0.1,2.5,0.4,4.7,0.1,7.4c-0.1,0.4-0.7,3.5-0.8,3.9c-0.1,0.4-0.8,2-1,2.4  c-0.2,0.5-0.2,1.1-0.4,1.6c-0.5,1.3-1.2,2.9-2.1,4.1c-0.3,0.3-0.7,1.1-0.8,1.2c-0.2,0.2-2.4,3.4-4.4,5c-1,0.8-2.2,1.5-3.2,2.4  c-0.3,0.3-0.5,0.6-0.8,0.9c-0.8,0.7-1.9,1.1-2.9,1.6c-0.6,0.4-1.2,0.9-1.7,1.2c-0.5,0.3-0.8,0.3-1.8,0.9c-3.5,0.8-8.2,2.7-12.4,3.2  c-0.9,0.1-1.7,0.2-2.6,0.3c-0.7,0.1-1.3,0.2-1.9,0.2c-0.6,0-1.2,0-1.6,0.1c-0.2,0.1-0.7-0.6-0.5,0c-0.3-0.2-0.6-0.1-1.3,0.1  c-0.4-0.6-1.5-0.2-2-0.7c-0.3,0-1.9-0.2-2.7-0.2c-0.6-0.1-0.5,0.1-1,0.2c-1.8-0.2-7.1-1.8-8.2-2.6c-1.4,0.3-1.8-0.8-3-0.8  c-0.8-0.7-1.7-1.3-2.8-1.6c-0.7-0.5-2.6-1.7-2.6-2c-2.1-0.5-6.3-5.4-7.2-6.1c-1-1.8-3.7-6-3.8-7.1  C149.4,49.4,149.9,48.9,149.6,48.3L149.6,48.3z M199.6,38c-0.1-0.2,0-0.7-0.3-0.5C199.2,37.8,199.3,38,199.6,38L199.6,38z   M201,43.6c0.3,0,0.3,0.3,0.7,0.2c-0.3-1.7,0.2-4.2-0.2-6c-0.1,0,0,0.2-0.1,0.3 M199.2,38.4c0,0.5,0.5,0.3,0.9,0.3  c0-0.5,0.1-0.8-0.4-0.9C200,38.3,199.7,38.6,199.2,38.4L199.2,38.4z M199.3,40.6c-0.2,1.3,0.2,2.6,0.1,3.4c0.3-0.2,0.6,0.3,0.7-0.1  c-0.7-0.5,0.3-1.7-0.6-2.1c0.7,0,0.2-0.4,0.1-0.5c0.3,0,0.4-0.3,0.6-0.4c-0.1-0.9,0-0.9-0.1-1.7c-0.3,0.1-0.3-0.2-0.7,0  c-0.1,0.8,0,1.4,0.2,1.6C199.5,40.6,199.4,40.6,199.3,40.6L199.3,40.6z M152.5,47.2c-0.2,0-0.3-0.7-0.4-0.2c0.3,0,0.1,0.6,0.2,0.8  c0.6-0.2,0.9-0.5,1.4-0.7c0-0.2-0.1-0.4-0.1-0.5c-0.7,0.1-0.7,0.1-0.3-0.2C152.6,45.9,152.4,47,152.5,47.2L152.5,47.2z M151.1,50  c0.5,0.7,2,0.4,1.8-0.7C152.4,48.9,151,49.2,151.1,50L151.1,50z M153.7,50c0.3,1.7,1.9,1.7,3.5,1.6c0.1-0.3,0.2-0.6,0.3-0.9  C156.4,50.2,154.9,48.9,153.7,50L153.7,50z M151.3,51.1c0.1,0,0.2,0,0.3,0c0-0.1,0-0.2,0-0.3c-0.1,0-0.2,0-0.3,0L151.3,51.1  L151.3,51.1z M201.6,44.3c0.4,0.1,0-2.2-0.3-2C201.3,42.5,201.6,44.2,201.6,44.3L201.6,44.3z M199.3,45.9c0.6,0,0.2,0.3,0.5,0.6  c-0.1,0-0.3,0-0.4,0.1c0.3,1-0.2,1.3-0.1,2c0.4-0.2,0.4,0.1,0.7,0c0.1-0.6-0.1-0.4-0.3-0.9c0.1,0,0.3,0,0.4-0.1  c-0.2-0.6-0.3-0.6-0.4-1c0.6,0,0.4-0.5,0.7-0.6c-0.1-0.2-0.5,0.1-0.6-0.2c0.4-0.4,0.3,0.5,0,0c-0.1,0-0.3-1.4-0.5-1.4  C199.2,44.8,199.4,45.4,199.3,45.9L199.3,45.9z M201.4,55.1c-0.3-0.3,0.1-0.7,0.1-1.1c0.1-0.8-0.2-1.7,0.3-2.2  c-0.5-1.1,0.2-2.3-0.1-3.6c0.2,0,0.1-0.4,0.4-0.3c-0.3-1.1,0-1.5-0.3-2.7c-0.6,0.2,0.7,1.7-0.2,1.6c0.7,1.4-0.4,2.3-0.2,3.7  c-0.5,0.2-0.3-0.6-0.6-0.6c0,0.8,0.4,0.7,0.6,1c-0.1,0.6-0.8,0-0.5,0.9c0.4,0.1,0.2-0.7,0.5-0.2c0.1,0.4-0.6,0.2-0.6,0.6  C202.1,52.3,200.7,54.8,201.4,55.1L201.4,55.1z M155,54.1c0.1,0,0.2,0.1,0.3,0.1c0-0.2-0.1-0.5-0.3-0.4  C154.9,54,154.9,54.1,155,54.1L155,54.1z M200,49.8c-0.2-0.5,0.4-0.5,0.1-1.1C199,48.6,199.1,49.9,200,49.8L200,49.8z M199.3,50.9  c0.1,0.2,0.5-0.1,0.6,0.2c-0.5,0-0.8,0.3-0.7,0.8c0.4-0.2,0.4,0.1,0.7,0c-0.2-0.3-0.3-0.7,0.3-0.7c-0.1-0.4,0-1.2-0.4-1.2  c0,0.2,0.1,0.5-0.1,0.5c-0.4-0.2,0.1-0.6-0.4-0.6C199.1,50.3,199.5,50.4,199.3,50.9L199.3,50.9z M199,54c-0.3,0.6,0.1,1.6,0.2,2  c0-0.3,0.6-0.1,0.6-0.4c0-0.5-0.6-0.1-0.5-0.6c0.5,0,0.7-0.4,0.5-0.9C199.6,54.1,199.3,54,199,54L199,54z M199.5,53.3  c0-0.6,0.4-0.6,0.3-1.3c-0.7,0.3-0.7,1-0.8,1.7C199.2,53.8,199.1,53.5,199.5,53.3L199.5,53.3z M200.6,54.2c0.5,0,0.6-0.9,0.2-1.1  c0,0.2-0.2,0-0.4,0.1C200.9,53.5,200.4,53.4,200.6,54.2L200.6,54.2z M180.2,56.9c0.4,0.1,0.3-0.6-0.1-0.4L180.2,56.9L180.2,56.9z   M201.2,56c0.4-0.1,0.4-0.9-0.1-0.7C201.1,55.5,201.1,55.8,201.2,56L201.2,56z M199.2,56.7c0.4-0.1,0.2-0.7-0.2-0.5  c0.1,0.9-0.4,1.4,0.4,1.8c-1.1,0.2-0.7,2.2-0.5,3c0.4,0.1,0.3-0.2,0.6-0.2c0,0.3,0.3,0.3,0.2,0.6c-0.3,0-0.5-0.2-0.5,0.2  c0.3-0.1,0,0.6,0.3,0.5c0-0.2-0.2-0.6,0.2-0.6c0.1,0.2-0.9-1.1-0.5-1.3c-0.3-1.5,0.3-0.5,0-2c0.2-0.1,0.3,0.1,0.5,0.1  c-0.3-0.6,0.3-1.3,0-1.5C199.9,57.2,199.3,56.9,199.2,56.7L199.2,56.7z M201,57.1c0.1,0,0.3,0,0.4-0.1c0-0.2-0.1-0.5-0.3-0.4  C201.1,56.9,201.1,57,201,57.1L201,57.1z M201.1,57.6c0.1,0,0.3,0,0.4-0.1c0-0.1,0-0.3-0.1-0.4c-0.1,0-0.3,0-0.4,0.1L201.1,57.6  L201.1,57.6z M201.4,58.3c0-0.2-0.1-0.4-0.1-0.5c-0.2,0-0.4,0-0.4,0.2C201.2,57.8,200.9,58.5,201.4,58.3L201.4,58.3z M200.1,62.4  c0.1,0.5,0.5,0.5,0.9,0.7c0-0.3-0.1-0.5-0.1-0.8c0.3-0.4,0.5-1.5,0.5-2.4c0-0.4,0.2-1.4-0.5-1.4c0.3,0.4,0.1,0.8-0.5,0.6  c0,0.6,0.4,0.3,0.5,0.5c-0.2,0.3-1.3,0.8-0.5,1.2c-0.2-0.5,0.2-0.6,0.4-0.7c0.1,0.8-0.2,1.9-0.2,2.6  C200.6,62.3,200.2,62.5,200.1,62.4L200.1,62.4z M175.9,66.1c-0.4,0.1-0.5-0.3-1-0.1C174.3,67.1,176.2,67.7,175.9,66.1L175.9,66.1z   M175,65.8c-0.3-0.4-0.5-0.6,0-0.9c-0.3-0.3-0.7-0.1-1.1,0.2c0,0.1,0,0.3,0.1,0.4c0.9,0,0,0.5,0.8,0.7  C174.8,65.9,174.9,65.8,175,65.8L175,65.8z M199.4,63c-0.4-0.7,0-1.6-0.7-1.8C198.8,62,198.5,63,199.4,63L199.4,63z M199.3,64.5  c-0.1-0.5-0.4-0.8-0.7-1C198.9,63.8,198.7,64.7,199.3,64.5L199.3,64.5z M198.8,65.8c0.3,0.3,0.5-0.3,0.8,0c0-0.2-0.1-0.4-0.1-0.5  C199.2,65.4,199,65.6,198.8,65.8L198.8,65.8z M184,69.2c0.1,0,0.2,0,0.3,0c0-0.1,0-0.2,0-0.3c-0.1,0-0.2,0-0.3,0L184,69.2L184,69.2  z"></path>	<path class="st0" d="M70.9,78.7c0.2,0.4,0.8-0.4,1,0.1c-0.8,0.5-1.1,0-1.8-0.1c0.1-0.6,0.1-0.9,0.1-1.4c0.7-0.4,1.1-1.1,1.8-1.6  c0-0.4-0.3-0.4-0.1-0.7c0.5-0.2,0.5-0.7,1.1-0.8c-0.1-0.4,0.2-0.5,0.1-0.8c1.3-1.3,2-3.1,3.6-4.2c-0.1-0.3-0.1-0.5,0-0.7  c1.8-1.4,2.3-3.7,4.1-5.1c0.5-1,0.9-2.1,1.9-2.7c0.5-0.9,0.5-2.5,2.1-2.2c0.1,1,1.2,0.7,1.2,1.8c0.3,0,0.6-0.1,0.9-0.1  c0.1,0.3,0,0.4-0.1,0.5c0.8,0.2,1.4,0.7,2.1,1.2c1.3,0.9,3,2.1,4.3,3.3c0.6,0,0.8,0.3,1.3,0.5c0.2,0.3,0.3,0.2,0.2,0.6  c0.6-0.2,0.7,0.3,1.2,0.2c0.3,0.6,0.8,0.9,1.5,1c0,0.3,0.3,0.4,0.4,0.6c2.3,1.3,4.5,2.9,6.5,4.6c-1.3,0.7-2.8,0.4-3.9,0.8  c0-0.1,0-0.1,0.1-0.2c-0.9,0.7-3.3,0.4-4.9,0.9c-0.4,0.1-0.8,0.4-1.2,0.4c-0.3,0.1-0.5-0.2-0.8-0.1c-0.4,0-1,0.4-1.5,0.5  c-1.2,0.3-2.5,0.3-3.7,0.4c-1.2,0.1-2.4,0.6-3.5,0.8c-1.4,0.2-3.5,0.2-5.3,0.6c-1.9,0.4-4.2,0.8-6.3,1.3c-0.4,0.2-0.2-0.4-0.6-0.3  C72,78.4,71.4,78.3,70.9,78.7L70.9,78.7z M91.4,67.7c0.4,0,0.5-0.2,0.8-0.3C92.1,66.9,91.3,67.2,91.4,67.7L91.4,67.7z M90.2,71.1  c0.1,0,0.2,0,0.3,0c0-0.1,0-0.2,0-0.3c-0.1,0-0.2,0-0.3,0L90.2,71.1L90.2,71.1z M102.4,72.2c0.1,0,0.2,0,0.3,0  c0.2-0.4-0.5-0.3-0.4-0.1C102.3,72.1,102.4,72.1,102.4,72.2L102.4,72.2z M90.8,74.5c-0.1-0.3,0.4-0.2,0.3-0.5  C90.8,74,90.4,74.4,90.8,74.5L90.8,74.5z M74.1,78.1c0.3-0.4-0.5-0.3-0.4-0.1C73.6,78,74.1,78,74.1,78.1L74.1,78.1z"></path>	<path class="st0" d="M64.4,79.4c-1.1,1-2.9,0.6-4.5,0.8c-1.5,0.2-3,0.7-4.6,0.8c-1.1,0.1-2.2,0.5-2.8,0.1c-3,0.8-7.7,1.6-11.2,2.2  c-1,0.2-1.9,0-2.8,0.1c-0.6,0.1-1.2,0.5-1.8,0.7c-0.9,0.2-2.2-0.1-2.7,0.7c-1.4-0.1-2.7,0.5-4.2,0.6c0-0.3-0.1-0.6-0.4-0.6  c0.5-0.4,0.4-1.3,1.4-1.4c0-0.5,0-0.6,0.1-1.1c0.9-0.8,1.6-1.9,2.1-3c0.2,0,0.4-0.1,0.5-0.1c0.1-0.6,0.5-1.1,1.1-1.4  c0.1-0.3,0-0.8,0.3-1c0.5-0.3,0.8-0.9,1.5-1.2c0.2-0.3-0.2-0.4,0-0.7c1.6-1.9,2.9-3.4,4-5.6c1.7-1.1,2-3.3,3.4-4.7  c1-0.3,1,0.7,1.7,0.7c1.2,1.5,2.6,2.9,4.4,3.5c0.1,0.1,0.2,0.3,0.2,0.6c1.1,0.4,2,1,2.7,1.8c0.9,0.1,1.6,0.7,2.3,1.3  c0.5,0.3,1.1,0.6,1.3,1.2c0.4,0.1,0.8,0.3,1.1,0.4c0.5,0.6,1.2,1,2.1,1.7c0.2,0.1,0.5,0.2,0.6,0.3c0.2,0.2,0.3,0.6,0.5,0.7  C62,77.7,63.8,77.9,64.4,79.4L64.4,79.4z M43.6,66.8c0.6-0.1,0.9-0.3,1.1-0.7C44.2,66.2,43.7,66.3,43.6,66.8L43.6,66.8z M45.3,69.1  c0.3,0.2,0.5-0.2,0.8-0.4c-0.2,0-0.3-0.2-0.5-0.1C45.6,68.9,45.4,68.9,45.3,69.1L45.3,69.1z M40.5,70.2c0.2-0.1,0.5,0,0.5-0.2  C40.8,69.8,40.5,69.9,40.5,70.2z M56.7,75.1c0.1,0,0.2,0,0.3,0c0-0.1,0-0.2,0-0.3c-0.1,0-0.2,0-0.3,0C56.7,74.9,56.7,75,56.7,75.1  L56.7,75.1z M53.5,77.9c0-0.4-0.2-0.4-0.6-0.3C53,77.9,53.3,78.1,53.5,77.9L53.5,77.9z M31.4,82.2c0.3,0,0.5-0.1,0.5-0.3  C31.8,81.7,31.4,81.8,31.4,82.2L31.4,82.2z M61,78.1c0.3,0,0.5-0.1,0.5-0.3C61.2,77.8,61,77.9,61,78.1L61,78.1z M36.9,83.4  C36,83.4,36.7,83.9,36.9,83.4z"></path>	<path class="st0" d="M40.7,88.1c4.3-1.1,9.2-1.5,14.1-2.5c0.3,0.4,0.4,0.5,0.5,0.9c0.1,0.4-0.1,0.6,0,0.9c0.1,0.4,0.4,0.8,0.5,1.4  c0.2,1.1,0.2,2.3,0.4,3.5c0.3,1.4,0.7,2.8,0.9,4.2c0,0.2-0.2,0.6-0.1,0.8c0.1,0.3,0.3,0.6,0.4,0.9c0.1,0.3-0.1,0.6,0,0.9  c0.1,0.2,0.3,0.4,0.4,0.6c0.3,1,0.1,2.2,0.2,3.2c0.2,1.7,0.8,3.3,1.1,5c0.5,3.1,0.7,6.4,1.7,9.5c-0.7,1.4,0.8,3.2,0.5,5.1  c-0.4,0.2-1.4,0.6-1.5,0c-1.4,0.7-3.7,1-5.7,1.4c-2.5,0.4-5,0.9-7.1,1.1c-0.6-2.7-0.9-5.2-1.3-7.2c-0.1-0.7-0.2-1.3-0.3-1.9  c-0.1-0.8-0.2-2.5-0.8-3.8c0.2-0.3,0.1-0.8,0.2-1.1c-1-3-1.1-6.4-1.7-9.9c-0.1-0.6-0.4-1.2-0.5-1.8c0-0.3,0.2-0.3,0.2-0.4  c0-0.3-0.2-1.2-0.3-1.7c-0.3-1.7-1-3.3-0.7-4.9c-0.4-0.5-0.5-1.5-0.3-2.1C40.7,90.2,40.8,88.7,40.7,88.1L40.7,88.1z M45.9,88.3  C45.3,88,45.5,88.9,45.9,88.3z M54,93.3c0.1,0,0.2,0,0.3,0c0-0.1,0-0.2,0-0.3c-0.1,0-0.2,0-0.3,0C54,93.2,54,93.2,54,93.3L54,93.3z   M54.8,93.2c0.3,0,0.5-0.1,0.5-0.3C55,92.9,54.8,93,54.8,93.2L54.8,93.2z"></path>	<path class="st0" d="M95.4,79.3c0.6,2.3,0.6,4.5,1,6.7c0.1,0.4,0.3,0.7,0.4,1.2c0.4,1.7,0.3,3.6,0.7,5.4c0.2,0.8,0.4,1.4,0.5,2.5  c0.1,0.9,0.3,1.9,0.4,2.9c0.2,1.3,0.2,2.7,0.6,4.1c0,0.1,0.3,0.2,0.3,0.4c0.1,0.5-0.1,1,0,1.5c0.1,0.7,0.4,1.2,0.5,1.8  c0.1,0.6,0,1.2,0.1,1.7c0.1,0.4,0.4,0.8,0.4,1.2c0.2,0.7,0,1.5,0,2.2c0.2,1.6,0.9,3.2,0.7,4.9c-1.6,0.3-3.6,0.5-5.7,1  c-1.4,0.3-2.9,0.3-4.4,0.6c-1.4,0.3-2.7,1-4.1,0.7c-0.7-2.5-0.9-5.1-1.3-7.8c-0.9-5.3-2-10.6-2.6-16c-0.1-0.5-0.1-1-0.2-1.5  c0-0.2-0.3-0.3-0.3-0.5c0-0.3,0.2-0.3,0.2-0.6c-0.1-0.4-0.4-0.7-0.4-1.2c-0.1-0.5,0.1-1.1,0-1.6c-0.1-0.7-0.4-1.3-0.6-1.9  c-0.3-1.8-0.4-3.7-0.8-5.6C85.4,81.1,90.7,79.7,95.4,79.3L95.4,79.3z M89.1,86.9c0.2-0.2,0.8-0.1,0.7-0.5  C89.5,86.5,89.2,86.6,89.1,86.9L89.1,86.9z"></path>	<path class="st0" d="M215.4,105.6c0.1,0.4-0.3,0.5-0.5,0.9c-3.1,0-6.7,1.3-10.6,1.6c-1.2,0.1-3.1,0-4.5,0.9  c-1.2-0.3-2.2,0.4-3.4,0.6c-1.8,0.3-3.6,0.3-5.3,0.6c-1.4,0.3-2.7,0.6-4.1,0.9c-2,0.4-4.2,0.9-6.6,1.2c-2.1,0.3-4.6,0.7-6.7,1.3  c-2.1,0.6-4.8,0.7-6.9,1.1c-2.1,0.4-4.2,1-6.4,0.8c-0.5-2-0.7-4.4-0.8-6.4c6.6-1.2,13.9-2.3,21.2-3.7c2.9-0.6,5.8-1.3,8.4-1.5  c1.2-0.1,2.4,0.4,3-0.7c-0.1-1.4-0.3-3.2-0.5-4.5c0.9-1.2-0.3-2.5-0.2-3.9c-0.8-0.4-0.5-1.6-0.8-2.6c-0.1-0.3-0.3-0.4-0.4-0.6  c-0.1-0.4,0.1-0.9,0.1-1.4c-0.1-1.4-0.8-2.3,0.3-3.3c-0.1-0.4-0.6-0.1-0.9-0.3c0.3-1.2-0.8-2-0.9-2.7c0.5-0.5,0.1,0.5,0.7,0.4  c-0.1-0.7-0.5-1.6,0.4-2.1c-0.2-0.5-0.4-0.8-0.7-1.1c-0.4-0.2-0.6,0.3-0.9-0.3c-0.5-0.5,0.4-0.2,0.1-1.1c-0.4-0.7-0.6,0.8-0.8-0.1  c-0.1-0.7,0.1-0.1,0.5-0.2c0.5-1.4-1.1-3.5-0.1-4.6c2.1,0,4.6-0.7,6.7-1c0.6,1.9,0.6,3.8,1.1,5.6c0.1,0.2,0.3,0.6,0.4,0.9  c0.1,0.5-0.1,1.2,0,1.8c0.3,2.6,1.1,5.2,1.7,8.1c0.3,1.3,0.5,2.6,0.6,3.8c0,0.5-0.1,0.9-0.1,1.4c0.1,0.9,0.5,1.8,0.5,2.8  c0,1.1-0.7,2.7,0.4,4.3c1.5-0.4,3-0.6,4.9-1c2.8-0.6,5.7-1.6,8.5-1.9c0.5-0.1,1.1,0.1,1.6,0c1.6-0.2,3.2-0.7,4.9-1  c0.4-0.1,0.9,0,1.3-0.1c0.4-0.1,0.7-0.4,1.1-0.6c1.4-0.4,3.7-0.4,5.8-0.7c2.5-0.4,4.3-1.8,5.5-0.1c0,1.9,0.9,3.9,0.2,5.4  c-0.2,0-0.3,0.1-0.4,0.3c-2,0.4-4.2,0.7-6.5,1.1c-1.7,0.3-3.4,0.9-5.1,1c-0.9,0.1-1.7-0.1-2.6,0.1  C218.3,105.5,216.1,106.3,215.4,105.6L215.4,105.6z M190.1,85.2c0.1,1,1.6,1.2,2.2,0.5c0-0.3-0.1-0.5-0.1-0.8  C191.3,84.3,190.7,84.5,190.1,85.2L190.1,85.2z"></path>	<path class="st0" d="M112.4,119.4c0,0.6,0.1,1.4,0.2,2.3c0.1,0.7,0.5,1.6,0,2c0.4,0.3,0.6,1.6,0.1,1.9c-0.2,0.4-0.7,0.4-1,0.4  c-1.7,0.3-3.8,0.5-5.9,0.9c-0.7,0.1-1.5,0.4-2.2,0.6c-1,0.2-2,0.1-2.9,0.3c-1,0.2-1.9,0.5-2.9,0.7c-1,0.1-2.1,0.1-3.1,0.3  c-0.6,0.1-1.2,0.4-1.8,0.5c-1,0.2-2,0.1-3.1,0.3c-2.4,0.5-5.8,1.2-8.1,1.6c-2.1,0.3-4.7,0.7-7.3,1.2c-1.6,0.3-3.2,0.7-4.7,1  c-2.4,0.4-5,0.6-7.4,1.1c-2.4,0.5-4.7,1.3-6.9,1.4c-0.4,0-1-0.1-1.4-0.1c-0.6,0.1-1,0.5-1.5,0.6c-0.5,0.1-1.1-0.1-1.6,0  c-4.4,0.4-8.5,1.8-12.8,2c-0.3-0.7,0-1.4-0.2-2.3c-0.1-0.6-0.6-1.2-0.7-1.8c-0.1-0.5,0.2-0.9,0.2-1.4c0-0.5-0.7-0.9-0.2-1.2  c5.5-0.9,12-1.8,18.1-2.9c1.3-0.3,2.7-0.2,4-0.5c0.6-0.1,1.2-0.4,1.8-0.5c1.1-0.2,2.4-0.2,3.4-0.5c0.5-0.1,0.9-0.5,1.4-0.6  c1.1-0.3,2.5-0.3,3.7-0.5c2.2-0.4,4.6-0.5,7.1-1.1c1.2-0.3,2.4-0.8,3.5-0.9c0.4-0.1,0.8,0.1,1.2,0.1c0.4,0,1-0.4,1.4-0.5  c1.7-0.3,3.6-0.3,5.3-0.5c1.9-0.3,3.9-0.8,5.8-1.1c2.4-0.4,4.8-0.8,7.1-1.2c2-0.4,4-0.4,5.9-1.1  C108.3,119.5,110.8,119.1,112.4,119.4L112.4,119.4z M49.8,132.3c-0.2,0-0.2-0.1-0.4-0.1C49.2,132.6,49.9,132.6,49.8,132.3  L49.8,132.3z"></path></g></svg>